#N canvas 592 554 699 473 10;
#X obj 256 377 outlet;
#X obj 110 36 inlet;
#X obj 148 36 inlet;
#N canvas 739 118 450 300 bag 0;
#X obj 8 91 list;
#X obj 8 39 r \$0.bag.i0;
#X obj 31 63 r \$0.bag.i1;
#X obj 8 115 s \$0.bag.o0;
#X obj 174 66 r holdOff;
#X obj 187 113 bng 15 250 50 0 empty empty empty 17 7 0 10 -262144
-1 -1;
#X connect 0 0 3 0;
#X connect 1 0 0 0;
#X connect 2 0 0 1;
#X connect 4 0 5 0;
#X connect 5 0 0 1;
#X restore 21 243 pd bag;
#X text 20 221 stores notes in a list;
#X text 109 19 note;
#X text 147 18 velocity;
#X obj 110 78 pack f f;
#X msg 110 99 \$2 \$1;
#X obj 110 121 route 0;
#N canvas 285 330 336 263 add_notes 0;
#X obj 15 14 inlet;
#X obj 15 48 t b b a;
#X obj 37 73 s \$0.bag.i0;
#X obj 15 117 list;
#X text 143 84 get actual content;
#X obj 15 172 list append;
#X text 144 176 add new note;
#X obj 15 218 s \$0.bag.i1;
#X text 139 217 put result back to bag;
#X obj 38 94 r \$0.bag.o0;
#X obj 158 48 print;
#X connect 0 0 1 0;
#X connect 1 0 3 0;
#X connect 1 1 2 0;
#X connect 1 2 5 1;
#X connect 3 0 5 0;
#X connect 5 0 7 0;
#X connect 9 0 3 1;
#X restore 149 163 pd add_notes;
#N canvas 582 70 366 593 remove_notes 0;
#X obj 12 69 t b b a;
#X obj 12 135 list;
#X obj 46 233 until;
#X obj 46 258 list append;
#X obj 159 252 bang;
#X obj 62 438 list prepend;
#X obj 170 442 t a;
#X obj 12 507 list;
#X obj 12 183 t b a;
#X obj 46 208 t b a b;
#X obj 12 35 inlet;
#X obj 34 92 s \$0.bag.i0;
#X obj 34 112 r \$0.bag.o0;
#X obj 46 281 list split 1;
#X obj 46 337 sel;
#X text 27 6 this is a bit more complicated....;
#X text 153 103 get content of bag;
#X text 149 153 __________;
#X text 148 309 __________;
#X text 150 388 __________;
#X text 147 475 __________;
#X obj 12 533 s \$0.bag.i1;
#X text 179 209 serialize content;
#X text 185 350 filter out note;
#X text 209 443 back to list again;
#X text 151 526 put result back to bag;
#X connect 0 0 1 0;
#X connect 0 1 11 0;
#X connect 0 2 14 1;
#X connect 1 0 8 0;
#X connect 2 0 3 0;
#X connect 3 0 13 0;
#X connect 4 0 2 1;
#X connect 5 0 6 0;
#X connect 5 0 7 1;
#X connect 6 0 5 1;
#X connect 7 0 21 0;
#X connect 8 0 7 0;
#X connect 8 1 9 0;
#X connect 9 0 2 0;
#X connect 9 1 3 1;
#X connect 9 2 5 1;
#X connect 9 2 7 1;
#X connect 10 0 0 0;
#X connect 12 0 1 1;
#X connect 13 0 14 0;
#X connect 13 1 3 1;
#X connect 13 2 4 0;
#X connect 14 1 5 0;
#X restore 110 184 pd remove_notes;
#X msg 149 142 \$2;
#X obj 273 35 inlet;
#X obj 223 119 > 0;
#X obj 230 163 spigot;
#N canvas 246 467 395 373 get_notes 0;
#X obj 43 78 s \$0.bag.i0;
#X obj 43 98 r \$0.bag.o0;
#X obj 20 26 inlet;
#X obj 20 121 list;
#X obj 20 54 t b b a;
#X obj 20 165 t a a;
#X text 142 88 get bag content;
#X text 125 137 ______________;
#X obj 75 234 mod;
#X obj 91 212 list length;
#X text 130 317 ______________;
#X obj 20 261 list split;
#X obj 20 294 list split 1;
#X obj 20 347 outlet;
#X text 135 178 getting a certain note from list;
#X floatatom 227 239 5 0 0 0 - - -;
#X obj 227 263 == 0;
#X obj 228 294 s arpStop;
#X connect 1 0 3 1;
#X connect 2 0 4 0;
#X connect 3 0 5 0;
#X connect 4 0 3 0;
#X connect 4 1 0 0;
#X connect 4 2 8 0;
#X connect 5 0 11 0;
#X connect 5 1 9 0;
#X connect 8 0 11 1;
#X connect 9 0 8 1;
#X connect 9 0 15 0;
#X connect 11 1 12 0;
#X connect 12 0 13 0;
#X connect 15 0 16 0;
#X connect 16 0 17 0;
#X restore 273 152 pd get_notes;
#X obj 273 95 f;
#X obj 299 95 + 1;
#X msg 273 193 \$1;
#X msg 314 194 \$1;
#X obj 273 116 mod 1000;
#X obj 566 35 inlet;
#X text 574 14 toggle;
#X obj 256 320 spigot;
#X obj 256 240 makenote 80 100;
#X obj 256 274 pack f f;
#X text 272 17 masterClock (ms);
#N canvas 846 182 555 420 arpClock 0;
#X obj 110 45 inlet;
#X text 91 29 ms IN;
#X obj 86 351 outlet;
#X obj 177 219 / 4;
#X obj 224 187 / 2;
#X obj 18 208 * 2;
#X obj 176 135 sel 1;
#X obj 214 135 sel 1;
#X obj 352 135 sel 1;
#X msg 176 156 0;
#X msg 214 156 0;
#X msg 352 156 0;
#X obj 390 135 sel 1;
#X msg 390 156 0;
#X obj 176 112 tgl 15 0 empty empty empty 17 7 0 10 -262144 -1 -1 0
1;
#X obj 214 112 tgl 15 0 empty empty empty 17 7 0 10 -262144 -1 -1 0
1;
#X obj 352 112 tgl 15 0 empty empty empty 17 7 0 10 -262144 -1 -1 0
1;
#X obj 390 112 tgl 15 0 empty empty empty 17 7 0 10 -262144 -1 -1 0
1;
#X obj 177 240 spigot;
#X obj 224 208 spigot;
#X obj 18 229 spigot;
#X obj 95 119 f;
#X obj 91 100 bng 15 250 50 0 empty empty empty 17 7 0 10 -262144 -1
-1;
#X obj 125 74 del 10;
#X obj 16 165 spigot 1;
#X obj 176 7 r arpSixteenth;
#X obj 214 30 r arpEighth;
#X obj 352 52 r arpQuarter;
#X obj 413 84 r arpHalf;
#X obj 86 306 metro;
#X obj 86 274 loadbang;
#X floatatom 227 333 5 0 0 0 - - -;
#X obj 227 357 outlet;
#X text 87 373 out (bang);
#X text 227 374 out (ms);
#X connect 0 0 21 1;
#X connect 0 0 3 0;
#X connect 0 0 4 0;
#X connect 0 0 5 0;
#X connect 0 0 24 0;
#X connect 3 0 18 0;
#X connect 4 0 19 0;
#X connect 5 0 20 0;
#X connect 6 0 9 0;
#X connect 7 0 10 0;
#X connect 8 0 11 0;
#X connect 9 0 15 0;
#X connect 9 0 16 0;
#X connect 9 0 17 0;
#X connect 10 0 14 0;
#X connect 10 0 16 0;
#X connect 10 0 17 0;
#X connect 11 0 14 0;
#X connect 11 0 15 0;
#X connect 11 0 17 0;
#X connect 12 0 13 0;
#X connect 13 0 14 0;
#X connect 13 0 15 0;
#X connect 13 0 16 0;
#X connect 14 0 6 0;
#X connect 14 0 18 1;
#X connect 14 0 23 0;
#X connect 15 0 7 0;
#X connect 15 0 19 1;
#X connect 15 0 23 0;
#X connect 16 0 8 0;
#X connect 16 0 23 0;
#X connect 16 0 24 1;
#X connect 17 0 12 0;
#X connect 17 0 20 1;
#X connect 17 0 23 0;
#X connect 18 0 29 1;
#X connect 18 0 31 0;
#X connect 19 0 29 1;
#X connect 19 0 31 0;
#X connect 20 0 29 1;
#X connect 20 0 31 0;
#X connect 21 0 3 0;
#X connect 21 0 4 0;
#X connect 21 0 5 0;
#X connect 21 0 24 0;
#X connect 22 0 21 0;
#X connect 23 0 22 0;
#X connect 24 0 29 1;
#X connect 24 0 31 0;
#X connect 25 0 14 0;
#X connect 26 0 15 0;
#X connect 27 0 16 0;
#X connect 28 0 17 0;
#X connect 29 0 2 0;
#X connect 30 0 29 0;
#X connect 31 0 32 0;
#X restore 273 63 pd arpClock;
#X obj 427 34 inlet;
#X text 428 14 gate;
#X obj 408 120 * 1;
#X obj 358 98 f;
#X obj 415 67 t b f;
#X connect 1 0 7 0;
#X connect 2 0 14 0;
#X connect 2 0 15 0;
#X connect 2 0 7 1;
#X connect 7 0 8 0;
#X connect 8 0 9 0;
#X connect 9 0 11 0;
#X connect 9 1 12 0;
#X connect 12 0 10 0;
#X connect 13 0 28 0;
#X connect 14 0 15 1;
#X connect 15 0 20 0;
#X connect 16 0 19 0;
#X connect 17 0 21 0;
#X connect 18 0 17 1;
#X connect 19 0 25 0;
#X connect 20 0 25 1;
#X connect 21 0 18 0;
#X connect 21 0 16 0;
#X connect 22 0 24 1;
#X connect 24 0 0 0;
#X connect 25 0 26 0;
#X connect 25 1 26 1;
#X connect 26 0 24 0;
#X connect 28 0 17 0;
#X connect 28 1 32 0;
#X connect 29 0 33 0;
#X connect 31 0 25 2;
#X connect 32 0 31 0;
#X connect 33 0 32 0;
#X connect 33 1 31 1;
#X coords 0 0 1 1 85 17 0;
