#N canvas 424 71 532 414 10;
#X obj -147 50 inlet~;
#X obj -95 -60 inlet;
#X msg -95 75 \$1 10;
#X obj -95 99 line~;
#X obj -147 131 *~;
#X obj -147 154 outlet~;
#X text -57 -60 Channel Volume;
#X obj -95 16 m_scale 0 1 0 1 dB;
#X connect 0 0 4 0;
#X connect 1 0 7 0;
#X connect 2 0 3 0;
#X connect 3 0 4 1;
#X connect 4 0 5 0;
#X connect 7 0 2 0;
