#N canvas 297 22 290 283 10;
#X obj -167 50 inlet~;
#X obj -115 -60 inlet;
#X msg -115 75 \$1 10;
#X obj -115 99 line~;
#X obj -167 131 *~;
#X obj -167 154 outlet~;
#X text -77 -60 Channel Volume;
#X connect 0 0 4 0;
#X connect 1 0 2 0;
#X connect 2 0 3 0;
#X connect 3 0 4 1;
#X connect 4 0 5 0;
