#N canvas 138 176 1142 571 10;
#X obj 294 16 inlet;
#X obj 95 101 pack f f;
#X obj 340 16 loadbang;
#X obj 95 32 r \$0-note;
#X obj 159 16 r \$0-glide;
#X obj 95 124 vline~;
#X obj 174 38 r \$0-glidetoggle;
#X obj 159 60 *;
#X floatatom 199 77 5 0 0 0 - - -;
#X obj 95 227 s_osc NAME saw;
#X obj 176 194 r \$0-s_osc;
#X obj 95 277 outlet~;
#X obj 139 164 snapshot~;
#X obj 183 115 tgl 15 0 empty empty empty 17 7 0 10 -262144 -1 -1 0
1;
#X obj 183 135 metro 100;
#X floatatom 129 198 5 0 0 0 - - -;
#X floatatom 294 139 5 0 100 0 - - -;
#X floatatom 935 139 5 0 127 0 - - -;
#X obj 935 160 s \$0-note;
#X obj 294 204 s \$0-glide;
#X floatatom 441 139 5 0 3 0 - - -;
#X obj 335 160 s \$0-glidetoggle;
#X obj 335 140 tgl 15 0 empty empty empty 17 7 0 10 -262144 -1 -1 0
1;
#X obj 294 182 f;
#X obj 294 161 bng 15 250 50 0 empty empty empty 17 7 0 10 -262144
-1 -1;
#X floatatom 520 139 5 0 1 0 - - -;
#X floatatom 520 203 5 0 0 0 - - -;
#X obj 520 160 * 2;
#X obj 520 181 - 1;
#X msg 520 224 trislope \$1;
#X obj 574 299 s \$0-s_osc;
#X msg 574 186 pwmdepth \$1;
#X msg 657 186 pwmfreq \$1;
#X floatatom 574 139 5 0 0 0 - - -;
#X floatatom 657 139 5 0 0 0 - - -;
#X floatatom 735 139 5 0 0 0 - - -;
#X msg 735 160 phase \$1;
#N canvas 167 205 463 328 waveform 0;
#X obj 161 42 inlet;
#X obj 167 92 select 0 1 2 3;
#X msg 213 174 1 0 0 0;
#X msg 213 194 0 1 0 0;
#X msg 213 214 0 0 1 0;
#X obj 104 276 outlet;
#X msg 104 255 switch \$1 \$2 \$3 \$4;
#X msg 213 234 0 0 0 1;
#X connect 0 0 1 0;
#X connect 1 0 2 0;
#X connect 1 1 3 0;
#X connect 1 2 4 0;
#X connect 1 3 7 0;
#X connect 2 0 6 0;
#X connect 3 0 6 0;
#X connect 4 0 6 0;
#X connect 6 0 5 0;
#X connect 7 0 6 0;
#X restore 441 160 pd waveform;
#X floatatom 798 139 5 0 1 0 - - -;
#X obj 798 285 s \$0-freq;
#X text 377 373 --note: value of 0-127 --glide: value of 0-1 --glidetoggle:
value of 0 or 1 --waveform: value of 0 = sine \, 1 = saw \, 2 = square
\, 3 = triangle --trislope: value of 0-1 (0.5 = triangle \, 0 = saw
\, 1 = -saw) --sqr_pwmdepth: square wave pulse width modulation depth
--sqr_pwmfreq: square wave pulse width modulation frequency --phase:
value for waveform phase --freq: value to increase/decrease osc freq
;
#X obj 41 184 +~ \$1;
#X obj 16 137 r \$0-freq;
#X obj 294 75 route glide glidetoggle waveform trislope sqr_pwmdepth
sqr_pwmfreq phase freq range;
#X floatatom 864 139 5 0 4 0 - - -;
#X obj 864 160 s \$0-range;
#N canvas 638 329 450 300 range 0;
#X obj 175 65 inlet;
#X obj 179 202 outlet;
#X msg 239 121 0;
#X msg 206 121 -12;
#X msg 175 121 -24;
#X msg 271 121 12;
#X msg 304 121 24;
#X obj 175 92 select 0 1 2 3 4;
#X connect 0 0 7 0;
#X connect 2 0 1 0;
#X connect 3 0 1 0;
#X connect 4 0 1 0;
#X connect 5 0 1 0;
#X connect 6 0 1 0;
#X connect 7 0 4 0;
#X connect 7 1 3 0;
#X connect 7 2 2 0;
#X connect 7 3 5 0;
#X connect 7 4 6 0;
#X restore 25 55 pd range;
#X obj 25 32 r \$0-range;
#X floatatom 798 264 5 -7 7 0 - - -;
#X obj 798 176 * 2;
#X obj 798 211 - 1;
#X obj 798 237 * 7;
#X obj 95 55 +;
#X obj 95 78 mtof;
#X obj 159 84 * 1500;
#X msg 340 38 glide 0.1 \, glidetoggle 0 \, waveform 1 \, freq 0.5
\, range 2;
#X text 819 363 Inlet 1: Control messages:;
#X text 830 399 glidetoggle <float>: off/on (0/1);
#X text 830 414 waveform <int>:;
#X text 856 428 0 = sine;
#X text 856 441 1 = saw;
#X text 856 455 2 = square;
#X text 856 469 3 = triangle;
#X text 830 384 glide <float>: fast/slow (0-1);
#X obj 589 161 * 15;
#X obj 666 162 * 115;
#X connect 0 0 43 0;
#X connect 1 0 5 0;
#X connect 2 0 55 0;
#X connect 3 0 52 0;
#X connect 4 0 7 0;
#X connect 5 0 41 0;
#X connect 6 0 7 1;
#X connect 7 0 8 0;
#X connect 7 0 54 0;
#X connect 9 0 11 0;
#X connect 10 0 9 1;
#X connect 12 0 15 0;
#X connect 13 0 14 0;
#X connect 14 0 12 0;
#X connect 16 0 23 1;
#X connect 16 0 24 0;
#X connect 17 0 18 0;
#X connect 20 0 37 0;
#X connect 22 0 21 0;
#X connect 22 0 24 0;
#X connect 23 0 19 0;
#X connect 24 0 23 0;
#X connect 25 0 27 0;
#X connect 26 0 29 0;
#X connect 27 0 28 0;
#X connect 28 0 26 0;
#X connect 29 0 30 0;
#X connect 31 0 30 0;
#X connect 32 0 30 0;
#X connect 33 0 64 0;
#X connect 34 0 65 0;
#X connect 35 0 36 0;
#X connect 36 0 30 0;
#X connect 37 0 30 0;
#X connect 38 0 49 0;
#X connect 41 0 12 0;
#X connect 41 0 9 0;
#X connect 42 0 41 1;
#X connect 43 0 16 0;
#X connect 43 1 22 0;
#X connect 43 2 20 0;
#X connect 43 3 25 0;
#X connect 43 4 33 0;
#X connect 43 5 34 0;
#X connect 43 6 35 0;
#X connect 43 7 38 0;
#X connect 43 8 44 0;
#X connect 43 9 17 0;
#X connect 44 0 45 0;
#X connect 46 0 52 1;
#X connect 47 0 46 0;
#X connect 48 0 39 0;
#X connect 49 0 50 0;
#X connect 50 0 51 0;
#X connect 51 0 48 0;
#X connect 52 0 53 0;
#X connect 53 0 1 0;
#X connect 54 0 1 1;
#X connect 55 0 43 0;
#X connect 64 0 31 0;
#X connect 65 0 32 0;
