#N canvas 0 22 1280 752 10;
#X msg 21 72 glidetoggle \$1;
#X msg 118 90 glide \$1;
#N canvas 689 40 574 297 adsr 0;
#X obj 24 16 inlet~;
#X obj 24 197 outlet~;
#X obj 24 170 *~;
#X obj 95 160 *~;
#X obj 95 138 *~;
#X obj 95 16 inlet;
#X obj 95 116 c_adsr 1 1 250 90 500;
#X obj 95 41 route peak attack decay sustain release;
#X obj 203 67 * 1000;
#X obj 313 82 * 1000;
#X obj 245 82 * 100;
#X obj 128 65 * 2500;
#X obj 204 169 s attackValue;
#X obj 314 146 s decayValue;
#X obj 340 190 s sustainValue;
#X obj 385 121 s releaseValue;
#X connect 0 0 2 0;
#X connect 2 0 1 0;
#X connect 3 0 2 1;
#X connect 4 0 3 1;
#X connect 4 0 3 0;
#X connect 5 0 7 0;
#X connect 6 0 4 0;
#X connect 6 0 4 1;
#X connect 7 0 6 1;
#X connect 7 1 11 0;
#X connect 7 2 8 0;
#X connect 7 3 10 0;
#X connect 7 4 9 0;
#X connect 7 5 6 0;
#X connect 8 0 13 0;
#X connect 8 0 6 3;
#X connect 9 0 15 0;
#X connect 9 0 6 5;
#X connect 10 0 14 0;
#X connect 10 0 6 4;
#X connect 11 0 12 0;
#X connect 11 0 6 2;
#X restore 814 11 pd adsr;
#X obj 471 -135 leafOsc~;
#X obj 295 -188 t a a;
#X msg 322 -166 peak \$1;
#X obj 136 -309 notein;
#X obj 471 -158 r leafOsc1;
#X obj 471 -18 r leafOsc2;
#X obj 470 -212 s leafOsc1;
#X obj 592 -212 s leafOsc2;
#X obj 295 -145 s adsr;
#X obj 21 45 r glideToggle;
#N canvas 11 110 725 378 mixer 0;
#X obj 133 72 inlet~;
#X obj 262 72 inlet~;
#X obj 163 184 outlet~;
#X obj 187 31 r leafOsc1Volume;
#X obj 325 33 r leafOsc2Volume;
#X obj 163 143 *~ 0.45;
#X msg 297 9 0.9;
#X obj 262 93 channelmono~;
#X obj 133 93 channelmono~;
#X connect 0 0 8 0;
#X connect 1 0 7 0;
#X connect 3 0 8 1;
#X connect 4 0 7 1;
#X connect 5 0 2 0;
#X connect 6 0 7 1;
#X connect 6 0 8 1;
#X connect 7 0 5 0;
#X connect 8 0 5 0;
#X restore 814 -11 pd mixer;
#N canvas 714 91 450 300 leafOsc1Receive 0;
#X obj 9 274 outlet;
#X msg 8 31 range \$1;
#X obj 8 8 r leafOsc1Range;
#X msg 104 31 waveform \$1;
#X obj 104 8 r leafOsc1Waveform;
#X msg 218 31 freq \$1;
#X obj 218 8 r leafOsc1Freq;
#X msg 308 31 phase \$1;
#X obj 308 8 r leafOsc1Phase;
#X obj 39 58 r leafOsc1PWMFreq;
#X msg 39 81 sqr_pwmfreq \$1;
#X obj 147 58 r leafOsc1PWMDepth;
#X msg 147 81 sqr_pwmdepth \$1;
#X obj 261 58 r leafOsc1TriSlope;
#X msg 261 81 trislope \$1;
#X connect 1 0 0 0;
#X connect 2 0 1 0;
#X connect 3 0 0 0;
#X connect 4 0 3 0;
#X connect 5 0 0 0;
#X connect 6 0 5 0;
#X connect 7 0 0 0;
#X connect 8 0 7 0;
#X connect 9 0 10 0;
#X connect 10 0 0 0;
#X connect 11 0 12 0;
#X connect 12 0 0 0;
#X connect 13 0 14 0;
#X connect 14 0 0 0;
#X restore 470 -265 pd leafOsc1Receive;
#N canvas 714 91 450 300 leafOsc2Receive 0;
#X obj 9 274 outlet;
#X msg 8 31 range \$1;
#X msg 104 31 waveform \$1;
#X msg 218 31 freq \$1;
#X msg 308 31 phase \$1;
#X msg 39 81 sqr_pwmfreq \$1;
#X msg 147 81 sqr_pwmdepth \$1;
#X msg 261 81 trislope \$1;
#X obj 8 8 r leafOsc2Range;
#X obj 104 8 r leafOsc2Waveform;
#X obj 218 8 r leafOsc2Freq;
#X obj 308 8 r leafOsc2Phase;
#X obj 39 58 r leafOsc2PWMFreq;
#X obj 147 58 r leafOsc2PWMDepth;
#X obj 261 58 r leafOsc2TriSlope;
#X connect 1 0 0 0;
#X connect 2 0 0 0;
#X connect 3 0 0 0;
#X connect 4 0 0 0;
#X connect 5 0 0 0;
#X connect 6 0 0 0;
#X connect 7 0 0 0;
#X connect 8 0 1 0;
#X connect 9 0 2 0;
#X connect 10 0 3 0;
#X connect 11 0 4 0;
#X connect 12 0 5 0;
#X connect 13 0 6 0;
#X connect 14 0 7 0;
#X restore 592 -265 pd leafOsc2Receive;
#X obj 477 -237 r leafOsc1Note;
#X obj 602 -238 r leafOsc2Note;
#X obj 591 -91 loadbang;
#X obj 18 -208 keyboard;
#X floatatom 63 -228 5 0 127 0 - - -;
#X obj 18 -288 vradio 15 1 0 5 empty empty empty 0 -8 0 10 -262144
-1 -1 0;
#X obj 471 -112 e_softclip \$0-dist;
#X obj 471 28 e_softclip \$0-dist;
#X msg 538 -134 dry \$1;
#X msg 538 -4 dry \$1;
#X obj 197 -235 s leafOsc1Note;
#X obj 196 -213 s leafOsc2Note;
#X obj 21 99 s leafOsc1;
#X obj 118 112 s leafOsc2;
#X text 38 -259 Keyboard Input;
#X text 181 -309 MIDI;
#X text 471 -286 Receive Messages;
#X text 471 -183 OSC 1;
#X text 471 -43 OSC 2;
#X obj 634 -133 hsl 75 15 0 1 0 0 empty empty empty -2 -8 0 10 -262144
-1 -1 0 1;
#X msg 591 -113 drive \$1;
#X obj 634 -2 hsl 75 15 0 1 0 0 empty empty empty -2 -8 0 10 -262144
-1 -1 0 1;
#X msg 591 18 drive \$1;
#X obj 886 224 dac~;
#X obj 814 119 throw~ outputL;
#X obj 886 175 catch~ outputL;
#X obj 827 98 throw~ outputR;
#X obj 907 195 catch~ outputR;
#X msg 591 -69 dry 0.5 \, drive 0.6;
#X obj 568 -45 r leafOsc2SoftClipMix;
#X obj 571 -176 r leafOsc1SoftClipMix;
#X obj 591 -155 r leafOsc1SoftClipDrive;
#X obj 592 -24 r leafOsc2SoftClipDrive;
#X obj 774 -145 throw~ outputL;
#X obj 774 -103 throw~ outputR;
#X obj 874 -166 tgl 15 0 empty empty empty 17 7 0 10 -262144 -1 -1
1 1;
#N canvas 0 22 450 300 switchRamp 0;
#X obj 149 0 spigot;
#X obj 149 -24 == 1;
#X obj 199 -24 == 0;
#X obj 199 1 spigot;
#X obj 166 -68 inlet;
#X obj 178 86 line;
#X obj 178 115 outlet;
#X msg 149 24 1 1000;
#X msg 199 25 0;
#X connect 0 0 7 0;
#X connect 1 0 0 1;
#X connect 1 0 0 0;
#X connect 2 0 3 1;
#X connect 2 0 3 0;
#X connect 3 0 8 0;
#X connect 4 0 1 0;
#X connect 4 0 2 0;
#X connect 5 0 6 0;
#X connect 7 0 5 0;
#X connect 8 0 5 0;
#X restore 874 -147 pd switchRamp;
#X obj 774 -166 *~;
#X obj 774 -124 *~;
#X obj 874 -188 r leafDelayBypass;
#X obj 905 -168 loadbang;
#X obj 776 -304 catch~ delay;
#X obj 803 -282 r leafDelayTime;
#X obj 728 98 throw~ delay;
#X obj 814 -55 r~ mixerIn1;
#X obj 471 52 s~ mixerIn2;
#X obj 471 -88 s~ mixerIn1;
#X obj 829 -34 r~ mixerIn2;
#X obj 873 -11 r adsr;
#X obj 118 45 r glide;
#X obj 118 68 * 0.3;
#X obj 538 -155 -;
#X msg 538 -176 1;
#X obj 538 -23 -;
#X msg 538 -45 1;
#N canvas 202 298 744 455 masterClock 0;
#X obj 153 10 inlet;
#X obj 25 11 loadbang;
#X obj 25 48 tgl 15 0 empty empty empty 17 7 0 10 -262144 -1 -1 1 1
;
#X obj 8 314 outlet;
#X obj 88 11 inlet;
#X text 134 42 default 500ms (120bpm 1/4);
#X obj 8 271 metro;
#X text 193 276 store metro value;
#X obj 458 191 f;
#X obj 536 191 f;
#X text 111 177 ms;
#X obj 8 108 r \$0-metronomeToggle;
#X obj 25 74 s \$0-metronomeToggle;
#X obj 160 228 r \$0-nudgeBack;
#X obj 257 228 r \$0-nudgeForward;
#X obj 481 47 s \$0-nudgeBack;
#X obj 571 47 s \$0-nudgeForward;
#X obj 426 144 r \$0-nudgeBack;
#X obj 557 144 r \$0-nudgeForward;
#X obj 35 148 r \$0-metronomeNudge;
#X obj 153 74 s \$0-setMetronome;
#X obj 506 92 r \$0-setMetronome;
#X obj 35 128 r \$0-setMetronome;
#X obj 217 253 r \$0-setMetronome;
#X obj 522 144 * -1;
#X obj 458 212 +;
#X obj 536 212 +;
#X obj 372 363 s \$0-metronomeNudge;
#X floatatom 75 176 5 0 0 0 - - -;
#X obj 160 253 del 100;
#X obj 160 276 f;
#X obj 372 342 line;
#X obj 481 22 inlet;
#X obj 571 23 inlet;
#X msg 372 321 \$1 50;
#X msg 462 274 \$1 50;
#X msg 104 42 500;
#X obj 506 115 / 4;
#X text 533 115 make 1/16th note;
#X msg 317 18 100;
#X obj 67 197 outlet;
#X text 109 198 ms;
#X text 51 314 bang;
#X obj 557 166 bng 15 250 50 0 empty empty empty 17 7 0 10 -262144
-1 -1;
#X obj 426 166 bng 15 250 50 0 empty empty empty 17 7 0 10 -262144
-1 -1;
#X floatatom 46 272 5 0 0 0 - - -;
#N canvas 611 86 669 496 metroDivide 0;
#X obj 100 35 inlet;
#X text 81 19 ms IN;
#X obj 81 267 outlet;
#X obj 167 209 / 4;
#X obj 214 177 / 2;
#X obj 8 198 * 2;
#X obj 166 125 sel 1;
#X obj 204 125 sel 1;
#X obj 342 125 sel 1;
#X msg 166 146 0;
#X msg 204 146 0;
#X msg 342 146 0;
#X obj 380 125 sel 1;
#X msg 380 146 0;
#X obj 166 102 tgl 15 0 empty empty empty 17 7 0 10 -262144 -1 -1 0
1;
#X obj 204 102 tgl 15 0 empty empty empty 17 7 0 10 -262144 -1 -1 0
1;
#X obj 342 102 tgl 15 0 empty empty empty 17 7 0 10 -262144 -1 -1 1
1;
#X obj 380 102 tgl 15 0 empty empty empty 17 7 0 10 -262144 -1 -1 0
1;
#X obj 167 230 spigot;
#X obj 214 198 spigot;
#X obj 8 219 spigot;
#X obj 85 109 f;
#X obj 81 90 bng 15 250 50 0 empty empty empty 17 7 0 10 -262144 -1
-1;
#X obj 115 64 del 10;
#X obj 342 42 r metroQuarter;
#X obj 403 74 r metroHalf;
#X obj 204 20 r metroEighth;
#X obj 166 -3 r metroSixteenth;
#X obj 8 166 spigot 1;
#X floatatom 258 297 5 0 0 0 - - -;
#X obj 278 64 loadbang;
#X connect 0 0 21 1;
#X connect 0 0 3 0;
#X connect 0 0 4 0;
#X connect 0 0 5 0;
#X connect 0 0 28 0;
#X connect 3 0 18 0;
#X connect 4 0 19 0;
#X connect 5 0 20 0;
#X connect 6 0 9 0;
#X connect 7 0 10 0;
#X connect 8 0 11 0;
#X connect 9 0 15 0;
#X connect 9 0 16 0;
#X connect 9 0 17 0;
#X connect 10 0 14 0;
#X connect 10 0 16 0;
#X connect 10 0 17 0;
#X connect 11 0 14 0;
#X connect 11 0 15 0;
#X connect 11 0 17 0;
#X connect 12 0 13 0;
#X connect 13 0 14 0;
#X connect 13 0 15 0;
#X connect 13 0 16 0;
#X connect 14 0 6 0;
#X connect 14 0 18 1;
#X connect 14 0 23 0;
#X connect 15 0 7 0;
#X connect 15 0 19 1;
#X connect 15 0 23 0;
#X connect 16 0 8 0;
#X connect 16 0 23 0;
#X connect 16 0 28 1;
#X connect 17 0 12 0;
#X connect 17 0 20 1;
#X connect 17 0 23 0;
#X connect 18 0 2 0;
#X connect 19 0 2 0;
#X connect 20 0 2 0;
#X connect 21 0 3 0;
#X connect 21 0 4 0;
#X connect 21 0 5 0;
#X connect 21 0 28 0;
#X connect 21 0 29 0;
#X connect 22 0 21 0;
#X connect 23 0 22 0;
#X connect 24 0 16 0;
#X connect 25 0 17 0;
#X connect 26 0 15 0;
#X connect 27 0 14 0;
#X connect 28 0 2 0;
#X connect 30 0 16 0;
#X restore 35 249 pd metroDivide;
#X connect 0 0 20 0;
#X connect 1 0 2 0;
#X connect 1 0 36 0;
#X connect 2 0 12 0;
#X connect 4 0 2 0;
#X connect 6 0 3 0;
#X connect 8 0 25 0;
#X connect 9 0 26 0;
#X connect 11 0 6 0;
#X connect 13 0 29 0;
#X connect 14 0 29 0;
#X connect 17 0 44 0;
#X connect 18 0 43 0;
#X connect 19 0 28 0;
#X connect 19 0 40 0;
#X connect 19 0 46 0;
#X connect 21 0 25 1;
#X connect 21 0 26 1;
#X connect 21 0 37 0;
#X connect 22 0 28 0;
#X connect 22 0 40 0;
#X connect 22 0 46 0;
#X connect 23 0 30 1;
#X connect 24 0 9 1;
#X connect 25 0 35 0;
#X connect 26 0 35 0;
#X connect 29 0 30 0;
#X connect 30 0 34 0;
#X connect 31 0 27 0;
#X connect 32 0 15 0;
#X connect 33 0 16 0;
#X connect 34 0 31 0;
#X connect 35 0 31 0;
#X connect 36 0 20 0;
#X connect 37 0 8 1;
#X connect 37 0 24 0;
#X connect 39 0 20 0;
#X connect 43 0 9 0;
#X connect 44 0 8 0;
#X connect 46 0 45 0;
#X connect 46 0 6 1;
#X restore 21 -46 pd masterClock;
#X obj 21 -135 r toggleMasterClock;
#X obj 75 -91 r tempoNudgeBack;
#X obj 102 -69 r tempoNudgeForward;
#X text 152 -112 in ms;
#X obj 21 -22 s masterClockBang;
#N canvas 112 286 927 386 delay------- 0;
#X obj 9 -81 inlet~;
#X obj 80 -81 inlet~;
#X obj 672 103 switch~;
#X obj 672 80 inlet;
#X obj 9 122 outlet~;
#X obj 80 172 outlet~;
#X obj 597 80 inlet;
#X obj 9 97 e_fbdelay delayL 2000;
#X obj 141 -81 inlet;
#X obj 141 69 sig~;
#X obj 80 147 e_fbdelay delayR 2000;
#X text 9 -98 L input;
#X text 81 -98 R input;
#X text 140 -98 Delay time (ms);
#X text 671 62 Bypass;
#X text 596 63 Parameters;
#X obj 258 -81 inlet;
#X text 257 -99 Tempo Sync Toggle;
#X obj 369 -81 inlet;
#X text 369 -98 Master Clock In;
#X obj 258 -60 tgl 15 0 empty empty empty 17 7 0 10 -262144 -1 -1 0
1;
#X obj 186 -4 == 0;
#X obj 150 -25 bng 15 250 50 0 empty empty empty 17 7 0 10 -262144
-1 -1;
#X obj 141 -5 f 1;
#X obj 369 39 spigot 0;
#X obj 141 17 spigot 1;
#X obj 258 -41 t f f;
#X obj 295 -41 del 10;
#X obj 141 -46 * 2000;
#N canvas 53 390 450 300 delayNotes 0;
#X obj 81 57 inlet;
#X obj 125 57 inlet;
#X obj 125 81 bng 15 250 50 0 empty empty empty 17 7 0 10 -262144 -1
-1;
#X text 81 39 ms IN;
#X text 125 38 toggle;
#X obj 125 106 f;
#X obj 73 225 outlet;
#X obj 243 57 inlet;
#X text 309 88 1/16 note;
#X text 296 110 1/8 note;
#X text 287 130 1/4 note;
#X obj 227 151 == 1;
#X text 259 151 1/2 note;
#X obj -1 88 spigot 0;
#X obj -15 129 spigot 0;
#X obj 8 199 spigot 0;
#X obj -35 150 spigot 1;
#X obj -1 67 / 4;
#X obj -15 108 / 2;
#X obj 8 178 * 2;
#X obj 257 88 == 0;
#X obj 247 109 == 0.33;
#X obj 237 130 == 0.66;
#X obj 182 73 del 10;
#X connect 0 0 5 1;
#X connect 0 0 17 0;
#X connect 0 0 18 0;
#X connect 0 0 16 0;
#X connect 0 0 19 0;
#X connect 1 0 2 0;
#X connect 2 0 5 0;
#X connect 5 0 17 0;
#X connect 5 0 18 0;
#X connect 5 0 16 0;
#X connect 5 0 19 0;
#X connect 7 0 11 0;
#X connect 7 0 20 0;
#X connect 7 0 21 0;
#X connect 7 0 22 0;
#X connect 11 0 15 1;
#X connect 11 0 23 0;
#X connect 13 0 6 0;
#X connect 14 0 6 0;
#X connect 15 0 6 0;
#X connect 16 0 6 0;
#X connect 17 0 13 0;
#X connect 18 0 14 0;
#X connect 19 0 15 0;
#X connect 20 0 13 1;
#X connect 20 0 23 0;
#X connect 21 0 14 1;
#X connect 21 0 23 0;
#X connect 22 0 16 1;
#X connect 22 0 23 0;
#X connect 23 0 2 0;
#X restore 369 -24 pd delayNotes;
#X floatatom 444 -64 5 0 0 0 - - -;
#X connect 0 0 7 0;
#X connect 1 0 10 0;
#X connect 3 0 2 0;
#X connect 6 0 7 2;
#X connect 6 0 10 2;
#X connect 7 0 4 0;
#X connect 8 0 28 0;
#X connect 8 0 30 0;
#X connect 9 0 7 1;
#X connect 9 0 10 1;
#X connect 10 0 5 0;
#X connect 16 0 20 0;
#X connect 18 0 29 0;
#X connect 20 0 26 0;
#X connect 21 0 25 1;
#X connect 22 0 23 0;
#X connect 23 0 25 0;
#X connect 24 0 9 0;
#X connect 25 0 9 0;
#X connect 26 0 21 0;
#X connect 26 0 24 1;
#X connect 26 1 27 0;
#X connect 27 0 22 0;
#X connect 27 0 29 1;
#X connect 28 0 23 1;
#X connect 28 0 25 0;
#X connect 29 0 24 0;
#X connect 30 0 29 2;
#X restore 774 -188 pd delay-------;
#X obj 817 -259 r delaySyncToggle;
#X obj 48 -113 r masterTempo;
#X obj 31 -1 s masterClock;
#X obj 832 -237 r masterClock;
#N canvas 8 100 450 300 monophonicIn 0;
#X obj 117 57 inlet;
#X obj 162 57 inlet;
#X obj 326 49 inlet;
#X obj 180 124 pack f f;
#X text 329 28 toggle;
#X text 104 38 pitch;
#X text 166 39 velocity;
#X obj 235 270 outlet;
#X obj 220 154 spigot 1;
#X obj 337 113 == 0;
#X connect 0 0 3 0;
#X connect 1 0 3 1;
#X connect 2 0 9 0;
#X connect 3 0 8 0;
#X connect 8 0 7 0;
#X connect 9 0 8 1;
#X restore 136 -276 pd monophonicIn;
#X obj 125 -186 tgl 15 0 empty empty empty 17 7 0 10 -262144 -1 -1
0 1;
#X obj 144 -188 r arpEnabled;
#X obj 235 -259 poly 1 1;
#X obj 235 -303 r holdOff;
#X msg 235 -281 stop;
#X obj 103 -231 r masterClock;
#X obj 107 -210 r arpGate;
#X obj 96 -187 arp;
#N canvas 262 167 640 365 lfo 0;
#X obj 133 31 inlet;
#X floatatom 250 57 5 0 1 0 - - -;
#X obj 133 118 c_lfo mainLFO 0.5 1 sine;
#X text 133 13 freq;
#X msg 38 307 \; \$1 \$2;
#X obj 30 174 symbol \$1;
#X msg 21 141 leafOsc1Freq;
#X obj 48 258 pack s f;
#X msg 337 65 0.25;
#X floatatom 263 311 5 0 0 0 - - -;
#N canvas 443 303 450 300 percent 0;
#X obj 80 29 inlet;
#X obj 119 0 inlet;
#X obj 80 196 outlet;
#X obj 80 111 *;
#X obj 119 57 / 100;
#X floatatom 119 30 5 0 100 0 - - -;
#X obj 80 136 + 1;
#X obj 80 54 * 2;
#X obj 80 79 - 1;
#X obj 80 166 / 2;
#X obj 162 4 loadbang;
#X msg 162 31 100;
#X connect 0 0 7 0;
#X connect 1 0 4 0;
#X connect 3 0 6 0;
#X connect 4 0 3 1;
#X connect 5 0 4 0;
#X connect 6 0 9 0;
#X connect 7 0 8 0;
#X connect 8 0 3 0;
#X connect 9 0 2 0;
#X connect 10 0 11 0;
#X connect 11 0 4 0;
#X restore 214 200 pd percent;
#X floatatom 339 141 5 0 100 0 - - -;
#X obj 383 243 list;
#X connect 0 0 2 0;
#X connect 1 0 2 0;
#X connect 2 0 6 0;
#X connect 2 0 10 0;
#X connect 5 0 7 0;
#X connect 6 0 5 0;
#X connect 8 0 2 0;
#X connect 10 0 7 1;
#X connect 10 0 9 0;
#X connect 11 0 10 1;
#X restore 247 -17 pd lfo;
#X obj 471 5 leafOsc~;
#X obj 247 -43 r lfoFreq;
#N canvas 370 231 640 365 delayReceive 0;
#X obj 46 160 outlet;
#X obj 46 6 r leafDelayFeedback;
#X msg 46 27 feedback \$1;
#X obj 171 6 * 0.94;
#X msg 57 92 lpfreq \$1;
#X obj 57 50 r leafDelayLPFreq;
#X obj 77 71 * 16000;
#X msg 171 118 input \$1;
#X obj 171 96 r leafDelayInput;
#X obj 171 50 loadbang;
#X msg 171 74 0.4;
#X connect 1 0 3 0;
#X connect 2 0 0 0;
#X connect 3 0 2 0;
#X connect 4 0 0 0;
#X connect 5 0 6 0;
#X connect 6 0 4 0;
#X connect 7 0 0 0;
#X connect 8 0 7 0;
#X connect 9 0 10 0;
#X connect 10 0 7 0;
#X restore 846 -215 pd delayReceive;
#X text 18 -160 ======= MASTER CLOCK =======;
#X text 15 -333 ======= INPUT =======;
#X text 21 25 ======= GLIDE =======;
#X text 245 -64 ======= LFO =======;
#X text 471 -304 ======= OSCILLATORS =======;
#X text 774 -76 ======= MIXER & OUTPUT =======;
#X text 777 -326 ======= DELAY =======;
#N canvas 197 240 450 300 filter 0;
#X obj 61 68 inlet~;
#X obj 118 44 inlet;
#X obj 61 116 outlet~;
#X obj 61 92 e_lop4 8000 0;
#X obj 118 67 route freq q;
#X connect 0 0 3 0;
#X connect 1 0 4 0;
#X connect 3 0 2 0;
#X connect 4 0 3 1;
#X connect 4 1 3 2;
#X restore 814 35 pd filter;
#X obj 882 11 r filter;
#X obj 944 45 r masterVolume;
#X obj 946 -3 loadbang;
#X obj 810 65 channelmono~;
#X msg 946 21 0.1;
#X obj 295 -233 m_scale 0 127 0 1 0.5;
#X connect 0 0 28 0;
#X connect 0 0 29 0;
#X connect 1 0 28 0;
#X connect 1 0 29 0;
#X connect 2 0 102 0;
#X connect 3 0 22 0;
#X connect 4 0 11 0;
#X connect 4 1 5 0;
#X connect 5 0 11 0;
#X connect 6 0 82 0;
#X connect 6 0 90 0;
#X connect 6 1 82 1;
#X connect 6 1 90 1;
#X connect 7 0 3 0;
#X connect 8 0 92 0;
#X connect 12 0 0 0;
#X connect 13 0 2 0;
#X connect 14 0 9 0;
#X connect 15 0 10 0;
#X connect 16 0 9 0;
#X connect 17 0 10 0;
#X connect 18 0 44 0;
#X connect 19 0 82 0;
#X connect 19 0 90 0;
#X connect 19 1 82 1;
#X connect 19 1 90 1;
#X connect 20 0 19 1;
#X connect 21 0 19 0;
#X connect 22 0 62 0;
#X connect 23 0 61 0;
#X connect 24 0 22 1;
#X connect 25 0 23 1;
#X connect 35 0 36 0;
#X connect 36 0 22 1;
#X connect 37 0 38 0;
#X connect 38 0 23 1;
#X connect 41 0 39 0;
#X connect 43 0 39 1;
#X connect 44 0 22 1;
#X connect 44 0 23 1;
#X connect 45 0 69 1;
#X connect 45 0 70 0;
#X connect 46 0 67 1;
#X connect 46 0 68 0;
#X connect 47 0 36 0;
#X connect 48 0 38 0;
#X connect 51 0 77 6;
#X connect 51 0 52 0;
#X connect 52 0 54 1;
#X connect 52 0 53 1;
#X connect 53 0 49 0;
#X connect 54 0 50 0;
#X connect 55 0 51 0;
#X connect 56 0 51 0;
#X connect 57 0 77 0;
#X connect 57 0 77 1;
#X connect 58 0 77 2;
#X connect 60 0 13 0;
#X connect 63 0 13 1;
#X connect 64 0 2 1;
#X connect 65 0 66 0;
#X connect 66 0 1 0;
#X connect 67 0 24 0;
#X connect 68 0 67 0;
#X connect 69 0 25 0;
#X connect 70 0 69 0;
#X connect 71 0 76 0;
#X connect 71 1 80 0;
#X connect 72 0 71 0;
#X connect 73 0 71 2;
#X connect 74 0 71 3;
#X connect 77 0 53 0;
#X connect 77 1 54 0;
#X connect 78 0 77 3;
#X connect 79 0 71 1;
#X connect 81 0 77 4;
#X connect 82 0 85 0;
#X connect 83 0 82 2;
#X connect 83 0 90 4;
#X connect 84 0 83 0;
#X connect 85 1 26 0;
#X connect 85 1 27 0;
#X connect 85 2 108 0;
#X connect 86 0 87 0;
#X connect 87 0 85 0;
#X connect 88 0 90 2;
#X connect 89 0 90 3;
#X connect 90 0 85 0;
#X connect 92 0 23 0;
#X connect 93 0 91 0;
#X connect 94 0 77 5;
#X connect 102 0 106 0;
#X connect 103 0 102 1;
#X connect 104 0 106 1;
#X connect 105 0 107 0;
#X connect 106 0 40 0;
#X connect 106 0 42 0;
#X connect 106 0 59 0;
#X connect 107 0 106 1;
#X connect 108 0 4 0;
